<svg width="512" height="512" viewBox="0 0 512 512" fill="none" xmlns="http://www.w3.org/2000/svg">
<path fill-rule="evenodd" clip-rule="evenodd" d="M512 256C512 397.385 397.385 512 256 512C114.615 512 0 397.385 0 256C0 114.615 114.615 0 256 0C397.385 0 512 114.615 512 256ZM147.812 327.562C139.079 320.187 137.978 307.129 145.353 298.396L240.429 185.812C247.803 177.079 260.861 175.978 269.594 183.353C269.681 183.427 269.768 183.501 269.853 183.576C270.795 184.354 271.681 185.227 272.497 186.194L367.573 298.778C374.947 307.511 373.846 320.568 365.114 327.943C356.381 335.318 343.323 334.217 335.948 325.484L256.302 231.171L176.978 325.103C169.603 333.836 156.545 334.937 147.812 327.562Z" fill="#2195EC"/>
</svg>
